<svg width="22" height="24" viewBox="0 0 22 24" fill="none" xmlns="http://www.w3.org/2000/svg">
<path d="M20.2503 1L12.2184 7.93729L13.712 3.84892L20.2503 1Z" fill="#E1E1E1" stroke="#E1E1E1" stroke-width="0.25" stroke-linecap="round" stroke-linejoin="round"/>
<path d="M1.72375 1L9.68412 8.00204L8.26208 3.84891L1.72375 1Z" fill="#E2E2E2" stroke="#E2E2E2" stroke-width="0.25" stroke-linecap="round" stroke-linejoin="round"/>
<path d="M17.3582 17.085L15.2212 20.8959L19.7972 22.3666L21.1081 17.1683L17.3582 17.085Z" fill="#E2E2E2" stroke="#E2E2E2" stroke-width="0.25" stroke-linecap="round" stroke-linejoin="round"/>
<path d="M0.873535 17.1683L2.17642 22.3666L6.74451 20.8959L4.61538 17.085L0.873535 17.1683Z" fill="#E2E2E2" stroke="#E2E2E2" stroke-width="0.25" stroke-linecap="round" stroke-linejoin="round"/>
<path d="M6.49827 10.6476L5.22717 12.8861L9.75552 13.1266L9.60459 7.43799L6.49827 10.6476Z" fill="#E2E2E2" stroke="#E2E2E2" stroke-width="0.25" stroke-linecap="round" stroke-linejoin="round"/>
<path d="M15.4754 10.6474L12.3215 7.37305L12.2183 13.1264L16.7466 12.8859L15.4754 10.6474Z" fill="#E2E2E2" stroke="#E2E2E2" stroke-width="0.25" stroke-linecap="round" stroke-linejoin="round"/>
<path d="M6.74451 20.8962L9.48532 19.3515L7.12586 17.2056L6.74451 20.8962Z" fill="#E2E2E2" stroke="#E2E2E2" stroke-width="0.25" stroke-linecap="round" stroke-linejoin="round"/>
<path d="M12.4884 19.3515L15.2213 20.8962L14.8479 17.2056L12.4884 19.3515Z" fill="#E2E2E2" stroke="#E2E2E2" stroke-width="0.25" stroke-linecap="round" stroke-linejoin="round"/>
<path d="M15.2213 20.8962L12.4884 19.3516L12.7108 21.4235L12.687 22.3022L15.2213 20.8962Z" fill="#D5D5D5" stroke="#D5D5D5" stroke-width="0.25" stroke-linecap="round" stroke-linejoin="round"/>
<path d="M6.74451 20.8962L9.28676 22.3022L9.27086 21.4235L9.48532 19.3516L6.74451 20.8962Z" fill="#D5D5D5" stroke="#D5D5D5" stroke-width="0.25" stroke-linecap="round" stroke-linejoin="round"/>
<path d="M9.33439 15.8369L7.06226 15.06L8.66703 14.1997L9.33439 15.8369Z" fill="#474747" stroke="#474747" stroke-width="0.25" stroke-linecap="round" stroke-linejoin="round"/>
<path d="M12.6393 15.8369L13.3066 14.1997L14.9194 15.06L12.6393 15.8369Z" fill="#474747" stroke="#474747" stroke-width="0.25" stroke-linecap="round" stroke-linejoin="round"/>
<path d="M6.74458 20.8959L7.14183 17.085L4.61548 17.1683L6.74458 20.8959Z" fill="#CCCCCC" stroke="#CCCCCC" stroke-width="0.25" stroke-linecap="round" stroke-linejoin="round"/>
<path d="M14.8319 17.085L15.2212 20.8959L17.3583 17.1683L14.8319 17.085Z" fill="#CCCCCC" stroke="#CCCCCC" stroke-width="0.25" stroke-linecap="round" stroke-linejoin="round"/>
<path d="M16.7466 12.8857L12.2183 13.1262L12.6393 15.8365L13.3067 14.1992L14.9194 15.0594L16.7466 12.8857Z" fill="#CCCCCC" stroke="#CCCCCC" stroke-width="0.25" stroke-linecap="round" stroke-linejoin="round"/>
<path d="M7.06234 15.0594L8.66712 14.1992L9.33448 15.8365L9.75552 13.1262L5.22717 12.8857L7.06234 15.0594Z" fill="#CCCCCC" stroke="#CCCCCC" stroke-width="0.25" stroke-linecap="round" stroke-linejoin="round"/>
<path d="M5.22729 12.8857L7.12604 17.2054L7.06244 15.0594L5.22729 12.8857Z" fill="#E2E2E2" stroke="#E2E2E2" stroke-width="0.25" stroke-linecap="round" stroke-linejoin="round"/>
<path d="M14.9195 15.0594L14.848 17.2054L16.7468 12.8857L14.9195 15.0594Z" fill="#E2E2E2" stroke="#E2E2E2" stroke-width="0.25" stroke-linecap="round" stroke-linejoin="round"/>
<path d="M9.75569 13.1265L9.33459 15.8367L9.86687 19.037L9.98606 14.8192L9.75569 13.1265Z" fill="#E2E2E2" stroke="#E2E2E2" stroke-width="0.25" stroke-linecap="round" stroke-linejoin="round"/>
<path d="M12.2183 13.1265L11.9958 14.81L12.1071 19.037L12.6394 15.8367L12.2183 13.1265Z" fill="#E2E2E2" stroke="#E2E2E2" stroke-width="0.25" stroke-linecap="round" stroke-linejoin="round"/>
<path d="M12.6395 15.8366L12.1072 19.0369L12.4885 19.3514L14.8481 17.2055L14.9195 15.0596L12.6395 15.8366Z" fill="#F5F5F5" stroke="#F5F5F5" stroke-width="0.25" stroke-linecap="round" stroke-linejoin="round"/>
<path d="M7.06226 15.0596L7.12585 17.2055L9.48532 19.3514L9.86667 19.0369L9.33439 15.8366L7.06226 15.0596Z" fill="#F5F5F5" stroke="#F5F5F5" stroke-width="0.25" stroke-linecap="round" stroke-linejoin="round"/>
<path d="M12.687 22.3025L12.7108 21.4237L12.5043 21.2202H9.46948L9.27086 21.4237L9.28675 22.3025L6.74451 20.8965L7.63428 21.7475L9.43768 23.1997H12.528L14.3394 21.7475L15.2212 20.8965L12.687 22.3025Z" fill="#C0C0C0" stroke="#C0C0C0" stroke-width="0.25" stroke-linecap="round" stroke-linejoin="round"/>
<path d="M12.4884 19.3516L12.107 19.0371H9.86669L9.4854 19.3516L9.27087 21.4235L9.4695 21.22H12.5043L12.7108 21.4235L12.4884 19.3516Z" fill="#161616" stroke="#161616" stroke-width="0.25" stroke-linecap="round" stroke-linejoin="round"/>
<path d="M20.5917 8.39051L21.267 4.56114L20.2501 1L12.4884 7.70608L15.4755 10.6474L19.694 12.0812L20.6235 10.814L20.2184 10.4717L20.8618 9.78727L20.3693 9.34327L21.0128 8.76977L20.5917 8.39051Z" fill="#767676" stroke="#767676" stroke-width="0.25" stroke-linecap="round" stroke-linejoin="round"/>
<path d="M0.706787 4.56114L1.39001 8.39051L0.953068 8.76977L1.60451 9.34327L1.11196 9.78727L1.75546 10.4717L1.35029 10.814L2.27979 12.0812L6.49833 10.6474L9.48541 7.70608L1.72368 1L0.706787 4.56114Z" fill="#767676" stroke="#767676" stroke-width="0.25" stroke-linecap="round" stroke-linejoin="round"/>
<path d="M19.6941 12.0811L15.4756 10.6475L16.7468 12.8859L14.848 17.2055L17.3585 17.1685H21.1082L19.6941 12.0811Z" fill="#F5F5F5" stroke="#F5F5F5" stroke-width="0.25" stroke-linecap="round" stroke-linejoin="round"/>
<path d="M6.49819 10.6475L2.2797 12.0811L0.873535 17.1685H4.61538L7.1258 17.2055L5.2271 12.8859L6.49819 10.6475Z" fill="#F5F5F5" stroke="#F5F5F5" stroke-width="0.25" stroke-linecap="round" stroke-linejoin="round"/>
<path d="M12.2182 13.1266L12.4883 7.70622L13.7117 3.84912H8.26184L9.48527 7.70622L9.75538 13.1266L9.85867 14.8285L9.86661 19.0372H12.107L12.1149 14.8285L12.2182 13.1266Z" fill="#F5F5F5" stroke="#F5F5F5" stroke-width="0.25" stroke-linecap="round" stroke-linejoin="round"/>
</svg>
