<svg width="22" height="24" viewBox="0 0 22 24" fill="none" xmlns="http://www.w3.org/2000/svg">
<path d="M17.5163 2.74859L21.0133 2.74859L14.1358 9.62586L12.3873 7.87737L17.5163 2.74859Z" fill="#846CF6"/>
<path d="M20.4041 21.4338L17.3754 21.4338L11.8019 13.1367L13.5504 11.3883L20.4041 21.4338Z" fill="#846CF6"/>
<path d="M13.6049 16.9924L13.6049 16.9924L13.6089 16.9902C14.5556 16.4537 15.2928 15.731 15.7835 14.8177C16.2775 13.9213 16.5145 12.9203 16.5145 11.8374C16.5145 10.7399 16.2702 9.73195 15.7558 8.84113C15.2516 7.94617 14.5101 7.24056 13.5667 6.71944C12.8249 6.29994 11.9741 6.02125 11.0294 5.86724V2.73047V1.81599H10.115H7.52268H6.6082V2.73047V5.84599C5.61685 5.98002 4.73054 6.24392 3.96805 6.65795L3.96804 6.65793L3.9629 6.66077C3.00965 7.18635 2.26824 7.90661 1.77624 8.82495L1.77617 8.82491L1.77065 8.83554C1.30517 9.73242 1.08552 10.741 1.08552 11.8374C1.08552 12.9271 1.33194 13.9336 1.84394 14.833L1.84844 14.8409L1.8531 14.8488C2.38008 15.7331 3.12734 16.4394 4.06629 16.9715L4.07349 16.9755L4.08076 16.9795C4.82563 17.3839 5.67225 17.6593 6.6082 17.8187V21.4306V22.345H7.52268H10.115H11.0294V21.4306V17.8306C11.9996 17.68 12.8643 17.4071 13.6049 16.9924ZM6.6082 10.0829V13.6364C6.60491 13.6342 6.60162 13.632 6.59834 13.6298C6.34397 13.4488 6.14668 13.2178 6.00121 12.9234C5.86587 12.6247 5.78852 12.2683 5.78852 11.8374C5.78852 11.4091 5.87097 11.0672 6.01058 10.7893L6.01063 10.7893L6.01525 10.7798C6.15474 10.4939 6.34922 10.2653 6.6082 10.0829ZM11.5848 10.7798L11.5848 10.7798L11.5895 10.7893C11.7291 11.0672 11.8115 11.4091 11.8115 11.8374C11.8115 12.273 11.7325 12.6324 11.5944 12.9331C11.4631 13.2191 11.2774 13.4446 11.0294 13.6234V10.0979C11.2642 10.2756 11.4478 10.499 11.5848 10.7798Z" fill="#846CF6" stroke="white" stroke-width="1.82895"/>
</svg>
