<svg width="33" height="35" viewBox="0 0 33 35" fill="none" xmlns="http://www.w3.org/2000/svg">
<g clip-path="url(#clip0_205_2601)">
<path d="M31.2741 23.7578L29.2814 30.4956L25.3694 29.4257L31.2741 23.7578Z" fill="#E4761B" stroke="#E4761B" stroke-width="0.0816702"/>
<path d="M25.3694 29.4257L29.1425 24.256L31.2741 23.7578L25.3694 29.4257Z" fill="#E4761B" stroke="#E4761B" stroke-width="0.0816702"/>
<path d="M28.3423 18.6778L31.2742 23.7577L29.1427 24.2559L28.3423 18.6778ZM28.3423 18.6778L30.2289 17.3711L31.2742 23.7577L28.3423 18.6778Z" fill="#F6851B" stroke="#F6851B" stroke-width="0.0816702"/>
<path d="M25.9412 14.8396L31.3641 12.6182L31.0946 13.835L25.9412 14.8396ZM30.923 15.2969L25.9412 14.8396L31.0946 13.835L30.923 15.2969Z" fill="#763D16" stroke="#763D16" stroke-width="0.0816702"/>
<path d="M30.923 15.2969L30.2288 17.3714L25.9412 14.8396L30.923 15.2969ZM32.0093 13.1327L31.0946 13.835L31.3641 12.6182L32.0093 13.1327ZM30.923 15.2969L31.0946 13.835L31.8214 14.4394L30.923 15.2969Z" fill="#763D16" stroke="#763D16" stroke-width="0.0816702"/>
<path d="M21.1633 27.7842L22.5191 28.217L25.3693 29.4257L21.1633 27.7842Z" fill="#E2761B" stroke="#E2761B" stroke-width="0.0816702"/>
<path d="M30.2286 17.3716L30.9228 15.2972L31.519 15.7545L30.2286 17.3716ZM30.2286 17.3716L24.6016 15.5177L25.941 14.8398L30.2286 17.3716Z" fill="#763D16" stroke="#763D16" stroke-width="0.0816702"/>
<path d="M27.2803 8.47754L25.941 14.8396L24.6016 15.5175L27.2803 8.47754Z" fill="#763D16" stroke="#763D16" stroke-width="0.0816702"/>
<path d="M31.3641 12.6182L25.9412 14.8396L27.2806 8.47754L31.3641 12.6182Z" fill="#763D16" stroke="#763D16" stroke-width="0.0816702"/>
<path d="M27.2805 8.47758L32.9403 7.82422L31.364 12.6183L27.2805 8.47758Z" fill="#763D16" stroke="#763D16" stroke-width="0.0816702"/>
<path d="M30.2286 17.3715L28.3421 18.6782L24.6016 15.5176L30.2286 17.3715Z" fill="#F6851B" stroke="#F6851B" stroke-width="0.0816702"/>
<path d="M32.6952 3.24219L32.9403 7.82388L27.2805 8.47725L32.6952 3.24219Z" fill="#763D16" stroke="#763D16" stroke-width="0.0816702"/>
<path d="M32.6951 3.24219L21.3838 11.4664L21.2368 5.8883L32.6951 3.24219Z" fill="#E2761B" stroke="#E2761B" stroke-width="0.0816702"/>
<path d="M12.825 5.21875L21.237 5.88845L21.384 11.4665L12.825 5.21875Z" fill="#F6851B" stroke="#F6851B" stroke-width="0.0816702"/>
<path d="M24.6016 15.5175L21.3838 11.4667L27.2804 8.47754L24.6016 15.5175Z" fill="#763D16" stroke="#763D16" stroke-width="0.0816702"/>
<path d="M24.6017 15.5176L28.3422 18.6782L23.0908 19.2581L24.6017 15.5176Z" fill="#E4761B" stroke="#E4761B" stroke-width="0.0816702"/>
<path d="M23.0907 19.2581L21.3838 11.4668L24.6016 15.5176L23.0907 19.2581Z" fill="#E4761B" stroke="#E4761B" stroke-width="0.0816702"/>
<path d="M27.2804 8.47725L21.3838 11.4664L32.6951 3.24219L27.2804 8.47725Z" fill="#763D16" stroke="#763D16" stroke-width="0.0816702"/>
<path d="M12.8983 29.2952L15.5689 32.0801L11.9346 28.7725L12.8983 29.2952Z" fill="#C0AD9E" stroke="#C0AD9E" stroke-width="0.0816702"/>
<path d="M25.3694 29.4256L26.6353 24.6152L29.1425 24.2559L25.3694 29.4256Z" fill="#CD6116" stroke="#CD6116" stroke-width="0.0816702"/>
<path d="M2.06885 15.8926L6.69138 11.0332L2.66504 15.3127L2.06885 15.8926Z" fill="#E2761B" stroke="#E2761B" stroke-width="0.0816702"/>
<path d="M29.1426 24.2561L26.6354 24.6154L28.3423 18.678L29.1426 24.2561ZM21.384 11.4665L16.884 11.3195L12.825 5.21875L21.384 11.4665Z" fill="#F6851B" stroke="#F6851B" stroke-width="0.0816702"/>
<path d="M28.3421 18.6777L26.6352 24.6152L26.4963 21.7159L28.3421 18.6777Z" fill="#E4751F" stroke="#E4751F" stroke-width="0.0816702"/>
<path d="M23.0908 19.2576L28.3422 18.6777L26.4965 21.7159L23.0908 19.2576Z" fill="#CD6116" stroke="#CD6116" stroke-width="0.0816702"/>
<path d="M16.8838 11.3193L21.3838 11.4663L23.0907 19.2577L16.8838 11.3193Z" fill="#F6851B" stroke="#F6851B" stroke-width="0.0816702"/>
<path d="M16.8838 11.3198L4.73941 0.0820312L12.8248 5.21908L16.8838 11.3198ZM12.8166 31.0024L2.26481 34.2692L0.157715 26.2246L12.8166 31.0024Z" fill="#E4761B" stroke="#E4761B" stroke-width="0.0816702"/>
<path d="M3.63696 17.9024L7.62247 14.7744L10.9628 15.5503L3.63696 17.9024Z" fill="#763D16" stroke="#763D16" stroke-width="0.0816702"/>
<path d="M10.9629 15.5505L7.62256 14.7746L9.41113 7.3916L10.9629 15.5505Z" fill="#763D16" stroke="#763D16" stroke-width="0.0816702"/>
<path d="M2.66504 15.3134L7.62242 14.7744L3.63691 17.9024L2.66504 15.3134Z" fill="#763D16" stroke="#763D16" stroke-width="0.0816702"/>
<path d="M26.4965 21.7161L24.4384 20.6789L23.0908 19.2578L26.4965 21.7161Z" fill="#CD6116" stroke="#CD6116" stroke-width="0.0816702"/>
<path d="M2.66515 15.3129L2.31396 13.459L7.62253 14.7739L2.66515 15.3129Z" fill="#763D16" stroke="#763D16" stroke-width="0.0816702"/>
<path d="M24.0137 23.0145L24.4384 20.6787L26.4964 21.7159L24.0137 23.0145Z" fill="#233447" stroke="#233447" stroke-width="0.0816702"/>
<path d="M26.6353 24.6151L24.0137 23.0144L26.4964 21.7158L26.6353 24.6151Z" fill="#F6851B" stroke="#F6851B" stroke-width="0.0816702"/>
<path d="M7.62252 14.7746L2.31396 13.4597L1.8811 11.8998L7.62252 14.7746ZM9.41109 7.3916L7.62252 14.7746L1.8811 11.8998L9.41109 7.3916ZM9.41109 7.3916L16.8839 11.3199L10.9628 15.5505L9.41109 7.3916Z" fill="#763D16" stroke="#763D16" stroke-width="0.0816702"/>
<path d="M10.9626 15.5498L16.8837 11.3193L19.5217 19.3802L10.9626 15.5498ZM19.5217 19.3802L11.3383 19.2087L10.9626 15.5498L19.5217 19.3802Z" fill="#E4761B" stroke="#E4761B" stroke-width="0.0816702"/>
<path d="M3.63696 17.9019L10.9628 15.5498L11.3385 19.2087L3.63696 17.9019ZM23.0908 19.2577L19.5218 19.3802L16.8839 11.3193L23.0908 19.2577Z" fill="#F6851B" stroke="#F6851B" stroke-width="0.0816702"/>
<path d="M24.4384 20.6789L24.0137 23.0146L23.0908 19.2578L24.4384 20.6789Z" fill="#CD6116" stroke="#CD6116" stroke-width="0.0816702"/>
<path d="M4.7395 0.0820312L16.8839 11.3198L9.41104 7.39151L4.7395 0.0820312Z" fill="#763D16" stroke="#763D16" stroke-width="0.0816702"/>
<path d="M0.157715 26.2245L10.3992 25.7998L12.8166 31.0022L0.157715 26.2245Z" fill="#E4761B" stroke="#E4761B" stroke-width="0.0816702"/>
<path d="M12.8166 31.0021L10.3992 25.7997L15.4301 25.5547L12.8166 31.0021Z" fill="#CD6116" stroke="#CD6116" stroke-width="0.0816702"/>
<path d="M24.0136 23.0149L26.6352 24.6156L28.0807 28.0213L24.0136 23.0149ZM11.3384 19.2091L0.157715 26.2245L3.63686 17.9023L11.3384 19.2091ZM10.3992 25.7998L0.157715 26.2245L11.3384 19.2091L10.3992 25.7998ZM23.0907 19.2581L23.7604 21.6918L20.5263 21.8797L23.0907 19.2581ZM20.5263 21.8797L19.5217 19.3806L23.0907 19.2581L20.5263 21.8797Z" fill="#F6851B" stroke="#F6851B" stroke-width="0.0816702"/>
<path d="M15.5689 32.08L12.8167 31.002L22.3884 32.6109L15.5689 32.08Z" fill="#C0AD9E" stroke="#C0AD9E" stroke-width="0.0816702"/>
<path d="M3.63692 17.9024L2.06885 15.8933L2.66504 15.3135L3.63692 17.9024Z" fill="#763D16" stroke="#763D16" stroke-width="0.0816702"/>
<path d="M23.4746 31.4185L22.3884 32.6109L12.8167 31.002L23.4746 31.4185Z" fill="#D7C1B3" stroke="#D7C1B3" stroke-width="0.0816702"/>
<path d="M23.9891 28.4948L12.8167 31.0021L15.4301 25.5547L23.9891 28.4948Z" fill="#E4761B" stroke="#E4761B" stroke-width="0.0816702"/>
<path d="M12.8167 31.0024L23.9891 28.4951L23.4746 31.4189L12.8167 31.0024Z" fill="#D7C1B3" stroke="#D7C1B3" stroke-width="0.0816702"/>
<path d="M1.88094 11.8996L1.51343 5.61914L9.41093 7.39138L1.88094 11.8996ZM2.66498 15.3134L1.57876 14.2108L2.3138 13.4595L2.66498 15.3134Z" fill="#763D16" stroke="#763D16" stroke-width="0.0816702"/>
<path d="M17.6924 20.997L19.5218 19.3799L19.2604 23.3327L17.6924 20.997Z" fill="#CD6116" stroke="#CD6116" stroke-width="0.0816702"/>
<path d="M19.5219 19.3799L17.6925 20.997L15.03 22.3772L19.5219 19.3799Z" fill="#CD6116" stroke="#CD6116" stroke-width="0.0816702"/>
<path d="M28.0808 28.021L27.5827 27.6535L24.0137 23.0146L28.0808 28.021Z" fill="#F6851B" stroke="#F6851B" stroke-width="0.0816702"/>
<path d="M15.0299 22.3778L11.3384 19.209L19.5217 19.3805L15.0299 22.3778Z" fill="#CD6116" stroke="#CD6116" stroke-width="0.0816702"/>
<path d="M19.2605 23.3327L19.5218 19.3799L20.5264 21.879L19.2605 23.3327Z" fill="#E4751F" stroke="#E4751F" stroke-width="0.0816702"/>
<path d="M1.21948 12.5201L1.88101 11.8994L2.31386 13.4593L1.21948 12.5201Z" fill="#763D16" stroke="#763D16" stroke-width="0.0816702"/>
<path d="M19.2605 23.3328L15.03 22.3773L17.6925 20.9971L19.2605 23.3328Z" fill="#233447" stroke="#233447" stroke-width="0.0816702"/>
<path d="M9.41093 7.39151L1.51343 5.61927L4.7394 0.0820312L9.41093 7.39151Z" fill="#763D16" stroke="#763D16" stroke-width="0.0816702"/>
<path d="M22.3883 32.6109L22.8375 33.836L15.5688 32.0801L22.3883 32.6109Z" fill="#C0AD9E" stroke="#C0AD9E" stroke-width="0.0816702"/>
<path d="M15.4302 25.5549L15.03 22.3779L19.2605 23.3335L15.4302 25.5549Z" fill="#F6851B" stroke="#F6851B" stroke-width="0.0816702"/>
<path d="M11.3384 19.209L15.0299 22.3778L15.4301 25.5548L11.3384 19.209Z" fill="#E4751F" stroke="#E4751F" stroke-width="0.0816702"/>
<path d="M20.5263 21.8796L23.7604 21.6918L27.5826 27.6537L20.5263 21.8796ZM11.3384 19.209L15.4301 25.5548L10.3992 25.7998L11.3384 19.209Z" fill="#F6851B" stroke="#F6851B" stroke-width="0.0816702"/>
<path d="M20.5264 21.8799L24.5446 27.997L19.2605 23.3336L20.5264 21.8799Z" fill="#E4751F" stroke="#E4751F" stroke-width="0.0816702"/>
<path d="M19.2605 23.333L24.5446 27.9964L23.9892 28.4946L19.2605 23.333Z" fill="#F6851B" stroke="#F6851B" stroke-width="0.0816702"/>
<path d="M23.9892 28.4952L15.4302 25.555L19.2605 23.3336L23.9892 28.4952ZM27.5827 27.654L24.5446 27.997L20.5264 21.8799L27.5827 27.654Z" fill="#F6851B" stroke="#F6851B" stroke-width="0.0816702"/>
<path d="M28.383 30.5283L27.0763 33.1499L22.8376 33.836L28.383 30.5283ZM22.8376 33.836L22.3884 32.6109L23.4746 31.4185L22.8376 33.836Z" fill="#C0AD9E" stroke="#C0AD9E" stroke-width="0.0816702"/>
<path d="M23.4747 31.4185L24.275 31.1L22.8376 33.836L23.4747 31.4185ZM22.8376 33.836L24.275 31.1L28.383 30.5283L22.8376 33.836Z" fill="#C0AD9E" stroke="#C0AD9E" stroke-width="0.0816702"/>
<path d="M27.5826 27.6533L28.5872 28.2658L25.5327 28.6334L27.5826 27.6533Z" fill="#161616" stroke="#161616" stroke-width="0.0816702"/>
<path d="M25.5326 28.6334L24.5444 27.9963L27.5826 27.6533L25.5326 28.6334ZM25.1815 29.1152L28.8975 28.666L28.3829 30.5281L25.1815 29.1152Z" fill="#161616" stroke="#161616" stroke-width="0.0816702"/>
<path d="M28.383 30.5279L24.275 31.0996L25.1815 29.115L28.383 30.5279ZM24.275 31.0996L23.4746 31.4181L23.9891 28.4943L24.275 31.0996ZM23.9891 28.4943L24.5445 27.9961L25.5327 28.6331L23.9891 28.4943ZM28.5872 28.2656L28.8975 28.6658L25.1815 29.115L28.5872 28.2656Z" fill="#161616" stroke="#161616" stroke-width="0.0816702"/>
<path d="M25.1816 29.115L25.5328 28.6331L28.5873 28.2656L25.1816 29.115ZM23.9893 28.4943L25.1816 29.115L24.2751 31.0996L23.9893 28.4943Z" fill="#161616" stroke="#161616" stroke-width="0.0816702"/>
<path d="M25.5328 28.634L25.1816 29.1158L23.9893 28.4951L25.5328 28.634Z" fill="#161616" stroke="#161616" stroke-width="0.0816702"/>
</g>
<defs>
<clipPath id="clip0_205_2601">
<rect width="33" height="34.3178" fill="white"/>
</clipPath>
</defs>
</svg>
