<svg width="32" height="20" viewBox="0 0 32 20" fill="none" xmlns="http://www.w3.org/2000/svg">
<path d="M6.55356 3.91993C11.7708 -1.25717 20.2295 -1.25717 25.4467 3.91993L26.0746 4.54301C26.3355 4.80186 26.3355 5.22155 26.0746 5.4804L23.9267 7.61181C23.7963 7.74124 23.5848 7.74124 23.4544 7.61181L22.5903 6.75439C18.9507 3.14271 13.0496 3.14271 9.40997 6.75439L8.48463 7.67262C8.3542 7.80204 8.14273 7.80204 8.0123 7.67262L5.86439 5.54121C5.60353 5.28235 5.60353 4.86267 5.86439 4.60381L6.55356 3.91993ZM29.8888 8.32791L31.8004 10.2249C32.0613 10.4837 32.0613 10.9034 31.8004 11.1623L23.1807 19.7159C22.9198 19.9748 22.4969 19.9748 22.236 19.7159C22.236 19.7159 22.236 19.7159 22.236 19.7159L16.1183 13.6451C16.053 13.5804 15.9473 13.5804 15.8821 13.6451C15.8821 13.6451 15.8821 13.6451 15.8821 13.6451L9.76445 19.7159C9.50359 19.9748 9.08065 19.9748 8.81979 19.7159C8.81979 19.7159 8.81979 19.7159 8.81979 19.7159L0.199795 11.1622C-0.0610646 10.9033 -0.0610646 10.4836 0.199795 10.2248L2.11145 8.3278C2.37231 8.06894 2.79524 8.06894 3.0561 8.3278L9.17397 14.3986C9.23918 14.4634 9.34492 14.4634 9.41013 14.3986C9.41013 14.3986 9.41013 14.3986 9.41014 14.3986L15.5277 8.3278C15.7885 8.06894 16.2115 8.06893 16.4724 8.32778C16.4724 8.32778 16.4724 8.32778 16.4724 8.32779L22.5902 14.3986C22.6554 14.4634 22.7612 14.4634 22.8264 14.3986L28.9441 8.32791C29.205 8.06905 29.6279 8.06905 29.8888 8.32791Z" fill="#3B99FC"/>
</svg>
